<svg xmlns="http://w3.org" viewBox="0 0 800 600" width="100%" height="100%">
  <!-- Cleanroom Dark Bench Fluidic Grid Base -->
  <rect width="800" height="600" fill="#04060b" />
  <g stroke="#0f172a" stroke-width="1" opacity="0.5">
    <path d="M 0,50 L 800,50 M 0,100 L 800,100 M 0,150 L 800,150 M 0,200 L 800,200 M 0,250 L 800,250 M 0,300 L 800,300 M 0,350 L 800,350 M 0,400 L 800,400 M 0,450 L 800,450 M 0,500 L 800,500 M 0,550 L 800,550" />
    <path d="M 50,0 L 50,600 M 100,0 L 100,600 M 150,0 L 150,600 M 200,0 L 200,600 M 250,0 L 250,600 M 300,0 L 300,600 M 350,0 L 350,600 M 400,0 L 400,600 M 450,0 L 450,600 M 500,0 L 500,600 M 550,0 L 550,600 M 600,0 L 600,600 M 650,0 L 650,600 M 700,0 L 700,600 M 750,0 L 750,600" />
  </g>

  <!-- DUAL-SIDE COMPONENT TORSO TRANSVERSE LAYER MAPPING -->

  <!-- Layer 1: Removable Biomimetic Internal Rib Cushion (18.0mm TPU Liner) -->
  <path d="M 260,180 L 540,180 C 560,260 560,440 540,520 L 260,520 C 240,440 240,260 260,180 Z" fill="#134e4a" stroke="#14b8a6" stroke-width="2" opacity="0.5" />
  
  <!-- Layer 2: Main Structural Carbon-Fiber Polycarbonate Armor (12.0mm Shielding) -->
  <path d="M 230,160 L 570,160 C 600,250 600,450 570,540 L 230,540 C 200,450 200,250 230,160 Z" fill="none" stroke="#374151" stroke-width="8" opacity="0.9" />
  <!-- Graphene Interleave Grounding Plane Mapping (EMP Deflector Track) -->
  <path d="M 230,160 L 570,160 C 600,250 600,450 570,540 L 230,540 Z" fill="none" stroke="#00f2ff" stroke-width="1" stroke-dasharray="3,5" opacity="0.5" />

  <!-- Layer 3: External Mechanochemical Camouflage Grid (1.5mm Active Hydrogel Overlap) -->
  <path d="M 222,152 L 578,152 C 610,246 610,454 578,548 L 222,548 C 190,454 190,246 222,152 Z" fill="none" stroke="#10b981" stroke-width="2" />

  <!-- Concentric Collarbone Toroidal Vortex Resonator Chambers (Left & Right) -->
  <!-- Left Resonator Chamber -->
  <circle cx="290" cy="160" r="24" fill="#020617" stroke="#0284c7" stroke-width="2" />
  <path d="M 288,136 L 288,110" stroke="#00f2ff" stroke-width="3.5" /> <!-- Micro-Venturi Pinch Jet Slit -->
  <!-- Right Resonator Chamber -->
  <circle cx="510" cy="160" r="24" fill="#020617" stroke="#0284c7" stroke-width="2" />
  <path d="M 512,136 L 512,110" stroke="#00f2ff" stroke-width="3.5" />

  <!-- Passive Toroidal Vortex Kinetic Shield Curtain Boundary Projections -->
  <g fill="none" stroke="#00f2ff" opacity="0.75" stroke-width="2">
    <!-- Left Swirling Rotating Air Barrier Loops -->
    <path d="M 288,110 Q 240,60 260,20 T 320,10 T 340,50" stroke-dasharray="4,2" />
    <path d="M 288,100 Q 210,50 240,10" stroke-width="1" />
    <!-- Right Swirling Rotating Air Barrier Loops -->
    <path d="M 512,110 Q 560,60 540,20 T 480,10 T 460,50" stroke-dasharray="4,2" />
    <path d="M 512,100 Q 590,50 560,10" stroke-width="1" />
  </g>

  <!-- Central Front Chest Mechanical Interlocking Dial (35.0mm Registry) -->
  <circle cx="400" cy="350" r="35" fill="#1f2937" stroke="#9ca3af" stroke-width="3" />
  <!-- Triple-Lobe Steel Link Bar Alignment Paths -->
  <g stroke="#9ca3af" stroke-width="4" stroke-linecap="round">
    <line x1="400" y1="350" x2="400" y2="300" />
    <line x1="400" y1="350" x2="355" y2="375" />
    <line x1="400" y1="350" x2="445" y2="375" />
  </g>
  <!-- Horizontal Rigid Locking Rods extending into Frame Side Receptors -->
  <line x1="365" y1="350" x2="222" y2="350" stroke="#9ca3af" stroke-width="6" />
  <line x1="435" y1="350" x2="578" y2="350" stroke="#9ca3af" stroke-width="6" />

  <!-- Rear Pelagic Squid Ram-Air Induction Intakes (95.0mm Ports) -->
  <!-- Left Intake & Spiral Path -->
  <rect x="250" y="470" width="80" height="24" rx="4" fill="#020617" stroke="#38bdf8" stroke-width="2" />
  <path d="M 290,494 C 290,494 290,440 290,184" fill="none" stroke="#38bdf8" stroke-width="2" stroke-dasharray="4,4" opacity="0.6" />
  <!-- Right Intake & Spiral Path -->
  <rect x="470" y="470" width="80" height="24" rx="4" fill="#020617" stroke="#38bdf8" stroke-width="2" />
  <path d="M 510,494 C 510,494 510,440 510,184" fill="none" stroke="#38bdf8" stroke-width="2" stroke-dasharray="4,4" opacity="0.6" />

  <!-- Modular Arm Socket Shoulder Anchor Pin Bores (16.0mm) -->
  <circle cx="215" cy="220" r="8" fill="#020617" stroke="#fb7185" stroke-width="2" />
  <circle cx="585" cy="220" r="8" fill="#020617" stroke="#fb7185" stroke-width="2" />

  <!-- Technical Callouts & Flow Dynamic Labels Text -->
  <line x1="222" y1="152" x2="110" y2="120" stroke="#4b5563" stroke-width="1" />
  <text x="100" y="115" fill="#10b981" font-family="monospace" font-size="12" text-anchor="end" font-weight="bold">ACTIVE CHAMELEON STEALTH SKIN (1.5mm)</text>

  <line x1="226" y1="175" x2="110" y2="200" stroke="#4b5563" stroke-width="1" />
  <text x="100" y="205" fill="#9ca3af" font-family="monospace" font-size="12" text-anchor="end" font-weight="bold">CF-PC COMPOSITE ARMOR (12.0mm)</text>

  <line x1="254" y1="210" x2="110" y2="280" stroke="#4b5563" stroke-width="1" />
  <text x="100" y="285" fill="#14b8a6" font-family="monospace" font-size="12" text-anchor="end" font-weight="bold">THORACIC COMPLIANT LINER (18.0mm)</text>

  <line x1="288" y1="110" x2="190" y2="50" stroke="#4b5563" stroke-width="1" />
  <text x="190" y="42" fill="#00f2ff" font-family="monospace" font-size="12" text-anchor="middle" font-weight="bold">VORTEX SHIELD SLIT (3.5mm)</text>

  <line x1="290" y1="470" x2="180" y2="440" stroke="#4b5563" stroke-width="1" />
  <text x="170" y="435" fill="#38bdf8" font-family="monospace" font-size="12" font-weight="bold">RAM-AIR INDUCTION PORT (Ø 95.0mm)</text>

  <line x1="365" y1="350" x2="365" y2="430" stroke="#4b5563" stroke-width="1" />
  <text x="365" y="445" fill="#9ca3af" font-family="monospace" font-size="12" text-anchor="middle" font-weight="bold">STEEL INTEGRAL LINK-BAR (Ø 16.0mm)</text>

  <line x1="215" y1="220" x2="140" y2="220" stroke="#4b5563" stroke-width="1" />
  <text x="130" y="224" fill="#fb7185" font-family="monospace" font-size="12" text-anchor="end" font-weight="bold">ARM CONNECTION BORE (Ø 16.0mm)</text>

  <text x="630" y="80" fill="#00f2ff" font-family="monospace" font-size="12" font-weight="bold">TOROIDAL AIR CURTAIN</text>
  <text x="630" y="98" fill="#00f2ff" font-family="monospace" font-size="12" font-weight="bold">KINETIC RATING: 2200J</text>

  <text x="400" y="585" fill="#475569" font-family="monospace" font-size="14" text-anchor="middle" font-weight="bold">PROJECT ARMW-88 // MODULE SUIT-TORSO RESODYNAMIC SHIELD MAP v1.0.0</text>

  <!-- Defs Marker End Array Profile -->
  <defs>
    <marker id="arrow-green" viewBox="0 0 10 10" refX="5" refY="5" markerWidth="6" markerHeight="6" orient="auto-start-reverse">
      <path d="M 0 0 L 10 5 L 0 10 z" fill="#10b981" />
    </marker>
  </defs>
</svg>
