<svg xmlns="http://w3.org" viewBox="0 0 800 600" width="100%" height="100%">
  <!-- Cleanroom Dark Bench Metamaterials Grid Base -->
  <rect width="800" height="600" fill="#010204" />
  <g stroke="#040914" stroke-width="1" opacity="0.65">
    <path d="M 0,50 L 800,50 M 0,100 L 800,100 M 0,150 L 800,150 M 0,200 L 800,200 M 0,250 L 800,250 M 0,300 L 800,300 M 0,350 L 800,350 M 0,400 L 800,400 M 0,450 L 800,450 M 0,500 L 800,500 M 0,550 L 800,550" />
    <path d="M 50,0 L 50,600 M 100,0 L 100,600 M 150,0 L 150,600 M 200,0 L 200,600 M 250,0 L 250,600 M 300,0 L 300,600 M 350,0 L 350,600 M 400,0 L 400,600 M 450,0 L 450,600 M 500,0 L 500,600 M 550,0 L 550,600 M 600,0 L 600,600 M 650,0 L 650,600 M 700,0 L 700,600 M 750,0 L 750,600" />
  </g>

  <!-- PHONONIC CRYSTAL MATRIX SCAFFOLDING (Periodic Air Voids Matrix) -->
  <!-- 4.25mm Spacing Square Lattice Array Voids (Radius: 1.85mm) -->
  <g fill="#0c1e3e" stroke="#00f2ff" stroke-width="1" opacity="0.4">
    <!-- Row 1 -->
    <circle cx="150" cy="120" r="14" /><circle cx="250" cy="120" r="14" /><circle cx="350" cy="120" r="14" /><circle cx="450" cy="120" r="14" /><circle cx="550" cy="120" r="14" /><circle cx="650" cy="120" r="14" />
    <!-- Row 2 -->
    <circle cx="150" cy="220" r="14" /><circle cx="650" cy="220" r="14" />
    <!-- Row 3 -->
    <circle cx="150" cy="320" r="14" /><circle cx="650" cy="320" r="14" />
    <!-- Row 4 -->
    <circle cx="150" cy="420" r="14" /><circle cx="250" cy="420" r="14" /><circle cx="350" cy="420" r="14" /><circle cx="450" cy="420" r="14" /><circle cx="550" cy="420" r="14" /><circle cx="650" cy="420" r="14" />
  </g>

  <!-- MICRO-FLUIDIC CHANNEL INSIDE ACOUSTIC MIRROR MATRIX -->
  <!-- 100% Focused Acoustic Energy Channel Area -->
  <path d="M 200,270 L 600,270 L 600,310 L 200,310 Z" fill="#020617" stroke="#38bdf8" stroke-width="2" />
  
  <!-- FOCUSED ACOUSTIC SOUND-WEDGES (5.2x Wave Concentration) -->
  <g fill="none" stroke="#00f2ff" stroke-width="2" opacity="0.8">
    <path d="M 210,270 L 230,290 L 210,310" />
    <path d="M 230,270 L 250,290 L 230,310" />
    <path d="M 570,270 L 550,290 L 570,310" />
    <path d="M 590,270 L 570,290 L 590,310" />
  </g>

  <!-- EGAIN FLUIDIC CORE WITH SUSPENDED SMCO NANOPARTICLES -->
  <!-- Heated localized junction (Left) and cooler fluidic collection draw (Right) -->
  <g stroke-linecap="round">
    <!-- Hot End -> Non-Magnetic Demagnetized State -->
    <path d="M 250,290 H 420" stroke="#b91c1c" stroke-width="18" />
    <!-- Cold End -> Highly Magnetic Ferroro-Fluidic State -->
    <path d="M 420,290 H 550" stroke="#cbd5e1" stroke-width="18" />
    <!-- Core Flow Motion Dots -->
    <circle cx="280" cy="290" r="3" fill="#fca5a5" />
    <circle cx="340" cy="290" r="3" fill="#fca5a5" />
    <circle cx="460" cy="290" r="3" fill="#1e293b" />
    <circle cx="510" cy="290" r="3" fill="#1e293b" />
  </g>

  <!-- EMBEDDED NDFEB N52 PERMANENT MAGNET ARRAYS (Pumping Draw Force) -->
  <rect x="560" y="275" width="25" height="30" fill="#1e1b4b" stroke="#a855f7" stroke-width="2" rx="2" />
  <text x="572" y="294" fill="#a855f7" font-family="monospace" font-size="10" font-weight="bold" text-anchor="middle">N52</text>

  <!-- CURIE-SIPHON FORCE & KINETIC PUMP VECTOR ARROWS -->
  <path d="M 380,290 H 470" fill="none" stroke="#34d399" stroke-width="2.5" marker-end="url(#arrow-green)" />
  <path d="M 500,290 H 540" fill="none" stroke="#a855f7" stroke-width="2" marker-end="url(#arrow-purple)" />

  <!-- RE-ALIGNMENT DIAGRAM DATA SHEET LABELS -->
  <text x="400" y="90" fill="#00f2ff" font-family="monospace" font-size="12" font-weight="bold" text-anchor="middle">PHONONIC BANDGAP ACOUSTIC MIRROR MATRIX (5.4 dB ATTENUATION)</text>
  <text x="400" y="110" fill="#64748b" font-family="monospace" font-size="10" text-anchor="middle">Lattice Constant a: 4.25mm // Cylindrical Air Voids r: 1.85mm</text>
  
  <text x="310" y="260" fill="#fca5a5" font-family="monospace" font-size="10" font-weight="bold" text-anchor="middle">HOT JUNCTION (DEMAGNETIZED)</text>
  <text x="510" y="260" fill="#38bdf8" font-family="monospace" font-size="10" font-weight="bold" text-anchor="middle">COOL JUNCTION (MAGNETIC DRAW)</text>
  
  <text x="400" y="345" fill="#34d399" font-family="monospace" font-size="12" font-weight="bold" text-anchor="middle">THERMOMAGNETIC CURIE SIPHON PUMP LOAD: +3.82 m/s</text>
  <text x="400" y="360" fill="#38bdf8" font-family="monospace" font-size="10" font-weight="bold" text-anchor="middle">FOCUSED RES-WEDGES ENHANCEMENT: 5.2x CONCENTRATION</text>
  
  <text x="400" y="525" fill="#64748b" font-family="monospace" font-size="10" text-anchor="middle">Catalytic Organic Buffer Film Depth: 0.05mm // Oxide Chemical Dissolution Latency: 0.12ms</text>
  <text x="400" y="540" fill="#64748b" font-family="monospace" font-size="10" text-anchor="middle">SmCo Ferroliquid Content: 4.5% Volume // Core Continuous Safe System Lifecycle: 200+ Years</text>

  <!-- Title & Foot Stamp Frame Matrix -->
  <text x="400" y="585" fill="#475569" font-family="monospace" font-size="14" text-anchor="middle" font-weight="bold">PROJECT LIQUID-RESONANCE-v88 // MODULE COMPUTE-METAMATERIALS HARMONICS v1.0.0</text>

  <defs>
    <marker id="arrow-green" viewBox="0 0 10 10" refX="5" refY="5" markerWidth="6" markerHeight="6" orient="auto-start-reverse">
      <path d="M 0 0 L 10 5 L 0 10 z" fill="#34d399" />
    </marker>
    <marker id="arrow-purple" viewBox="0 0 10 10" refX="5" refY="5" markerWidth="5" markerHeight="5" orient="auto-start-reverse">
      <path d="M 0 0 L 10 5 L 0 10 z" fill="#a855f7" />
    </marker>
  </defs>
</svg>
    
