<svg xmlns="http://w3.org" viewBox="0 0 800 600" width="100%" height="100%">
  <!-- Cleanroom Dark Bench Propulsion Core Grid Base -->
  <rect width="800" height="600" fill="#010204" />
  <g stroke="#050a15" stroke-width="1" opacity="0.65">
    <path d="M 0,50 L 800,50 M 0,100 L 800,100 M 0,150 L 800,150 M 0,200 L 800,200 M 0,250 L 800,250 M 0,300 L 800,300 M 0,350 L 800,350 M 0,400 L 800,400 M 0,450 L 800,450 M 0,500 L 800,500 M 0,550 L 800,550" />
    <path d="M 50,0 L 50,600 M 100,0 L 100,600 M 150,0 L 150,600 M 200,0 L 200,600 M 250,0 L 250,600 M 300,0 L 300,600 M 350,0 L 350,600 M 400,0 L 400,600 M 450,0 L 450,600 M 500,0 L 500,600 M 550,0 L 550,600 M 600,0 L 600,600 M 650,0 L 650,600 M 700,0 L 700,600 M 750,0 L 750,600" />
  </g>

  <!-- DORSAL & VENTRAL INTAKE PLENUMS (5:1 Volumetric Ratio Compression Shrouds) -->
  <g fill="#0c4a6e" stroke="#0284c7" stroke-width="2.5" stroke-linejoin="round">
    <!-- Top Dorsal Shroud Area -->
    <path d="M 220,40 L 580,40 L 500,140 L 300,140 Z" />
    <!-- Bottom Ventral Shroud Area -->
    <path d="M 300,460 L 500,460 L 580,560 L 220,560 Z" />
  </g>

  <!-- DUAL CONCENTRIC TOROIDAL LIFT RING HOUSINGS (Radius: 0.22m Center Layout) -->
  <circle cx="400" cy="300" r="130" fill="#0f172a" stroke="#475569" stroke-width="6" />
  <circle cx="400" cy="300" r="90" fill="#010204" stroke="#475569" stroke-width="4" />
  <circle cx="400" cy="300" r="50" fill="#0f172a" stroke="#475569" stroke-width="4" />

  <!-- COUNTER-ROTATING HYDRO-RESODYNAMIC LIFT LOOPS (Isothermal Pure Liquid H2O) -->
  <!-- Inner Ring Loop: Clockwise Rotation Vector -->
  <path d="M 400,230 A 70,70 0 1,1 399.9,230" fill="none" stroke="#0ea5e9" stroke-width="8" stroke-linecap="round" opacity="0.85" />
  <path d="M 400,230 A 70,70 0 1,1 399.9,230" fill="none" stroke="#f0fdfa" stroke-width="1.5" stroke-linecap="round" stroke-dasharray="6,4" />
  
  <!-- Outer Ring Loop: Counter-Clockwise Rotation Vector -->
  <path d="M 400,190 A 110,110 0 1,0 399.9,190" fill="none" stroke="#38bdf8" stroke-width="8" stroke-linecap="round" opacity="0.85" />
  <path d="M 400,190 A 110,110 0 1,0 399.9,190" fill="none" stroke="#f0fdfa" stroke-width="1.5" stroke-linecap="round" stroke-dasharray="6,4" />

  <!-- HYDROPHOBIC NON-WETTING CVD GRAPHENE INTERNAL PERIMETERS -->
  <circle cx="400" cy="300" r="127" fill="none" stroke="#22d3ee" stroke-width="0.75" opacity="0.4" />
  <circle cx="400" cy="300" r="93" fill="none" stroke="#22d3ee" stroke-width="0.75" opacity="0.4" />
  <circle cx="400" cy="300" r="87" fill="none" stroke="#22d3ee" stroke-width="0.75" opacity="0.4" />
  <circle cx="400" cy="300" r="53" fill="none" stroke="#22d3ee" stroke-width="0.75" opacity="0.4" />

  <!-- ELECTRO-ACOUSTIC ARRAY & INITIATION GRIDS -->
  <!-- 2400 Hz Standing Wave Anti-Freeze and Platinum-Titanium Ground-Effect Launch Nodes -->
  <g fill="#be123c" stroke="#f43f5e" stroke-width="2">
    <rect x="392" y="180" width="16" height="20" rx="1" />
    <rect x="392" y="400" width="16" height="20" rx="1" />
    <circle cx="250" cy="300" r="8" fill="#a855f7" stroke="#c084fc" />
    <circle cx="550" cy="300" r="8" fill="#a855f7" stroke="#c084fc" />
  </g>

  <!-- METROLOGICAL DATA ANNOTATION READOUT OVERLAYS -->
  <text x="400" y="32" fill="#0284c7" font-family="monospace" font-size="11" font-weight="bold" text-anchor="middle">DORSAL PLENUM INTAKE SHROUD (5:1 RATIO)</text>
  <text x="400" y="580" fill="#0284c7" font-family="monospace" font-size="11" font-weight="bold" text-anchor="middle">VENTRAL PLENUM INTAKE SHROUD (5:1 RATIO)</text>
  
  <text x="400" y="275" fill="#0ea5e9" font-family="monospace" font-size="12" font-weight="bold" text-anchor="middle">CONCENTRIC LIFT LOOPS</text>
  <text x="400" y="295" fill="#22d3ee" font-family="monospace" font-size="10" font-weight="bold" text-anchor="middle">CVD GRAPHENE PERIMETERS</text>
  <text x="400" y="315" fill="#34d399" font-family="monospace" font-size="11" font-weight="bold" text-anchor="middle">CRUISE: 29,268.08 RPM</text>
  <text x="400" y="335" fill="#e2e8f0" font-family="monospace" font-size="10" text-anchor="middle">Fluid Capacity: 40L / Ring</text>

  <text x="235" y="295" fill="#a855f7" font-family="monospace" font-size="10" font-weight="bold" text-anchor="end">2400 Hz ANTI-FREEZE</text>
  <text x="235" y="310" fill="#64748b" font-family="monospace" font-size="9" text-anchor="end">Excitation Draw: 42.50W</text>
  
  <text x="565" y="295" fill="#f43f5e" font-family="monospace" font-size="10" font-weight="bold" text-anchor="start">LAUNCH-PAD INITIATION</text>
  <text x="565" y="310" fill="#64748b" font-family="monospace" font-size="9" text-anchor="start">Ground Effect: 8500 N Thrust</text>

  <text x="400" y="505" fill="#34d399" font-family="monospace" font-size="12" font-weight="bold" text-anchor="middle">ISOTHERMAL CENTRIPETAL IMPLOSION // GYROSCOPIC PRECESSION CANCELLED</text>
  <text x="400" y="525" fill="#64748b" font-family="monospace" font-size="10" text-anchor="middle">1.618 Golden Ratio Logarithmic Spiral Horn // 2-Passenger Footprint Config Matrix</text>
  <text x="400" y="545" fill="#475569" font-family="monospace" font-size="13" text-anchor="middle" font-weight="bold">PROJECT AETHERIS // MODULE FLIGHT-THRUSTERS ARCHITECTURE v2.0.0</text>
</svg>
                                                                                                                                                              
