<svg xmlns="http://w3.org" viewBox="0 0 800 600" width="100%" height="100%">
  <!-- Cleanroom Dark Bench Fluidic Grid Base -->
  <rect width="800" height="600" fill="#020306" />
  <g stroke="#090d16" stroke-width="1" opacity="0.6">
    <path d="M 0,50 L 800,50 M 0,100 L 800,100 M 0,150 L 800,150 M 0,200 L 800,200 M 0,250 L 800,250 M 0,300 L 800,300 M 0,350 L 800,350 M 0,400 L 800,400 M 0,450 L 800,450 M 0,500 L 800,500 M 0,550 L 800,550" />
    <path d="M 50,0 L 50,600 M 100,0 L 100,600 M 150,0 L 150,600 M 200,0 L 200,600 M 250,0 L 250,600 M 300,0 L 300,600 M 350,0 L 350,600 M 400,0 L 400,600 M 450,0 L 450,600 M 500,0 L 500,600 M 550,0 L 550,600 M 600,0 L 600,600 M 650,0 L 650,600 M 700,0 L 700,600 M 750,0 L 750,600" />
  </g>

  <!-- MICRO-FLUIDIC AIR LOGIC COMPUTER TOPOLOGICAL BLUEPRINT -->

  <!-- Monolithic Core Block Background Boundary Layout (SLA Resin Chassis) -->
  <rect x="150" y="80" width="500" height="440" fill="#051026" stroke="#1e3a8a" stroke-width="4" rx="12" opacity="0.85" />

  <!-- Sub-Millimeter Logic Track Channels (1.5mm Trace Width Matrix) -->
  <!-- Primary Central Ram-Air Intake Plenum Track -->
  <path d="M 400,520 L 400,440" fill="none" stroke="#38bdf8" stroke-width="8" stroke-linecap="round" />
  
  <!-- Primary Bistable Jet Interaction Region (Coandă Effect Nozzle) -->
  <path d="M 400,440 L 400,360" fill="none" stroke="#a7f3d0" stroke-width="5" />
  <circle cx="400" cy="380" r="10" fill="#051026" stroke="#34d399" stroke-width="2" /> <!-- Vortex Interaction Node -->

  <!-- Left Logic Split Branch (Normal Cruising Vector Path) -->
  <path d="M 400,360 Q 320,320 280,240 L 280,140" fill="none" stroke="#34d399" stroke-width="4" stroke-linecap="round" opacity="0.9" />
  <!-- Right Logic Split Branch (Threat/Stall Emergency Diversion Path) -->
  <path d="M 400,360 Q 480,320 520,240 L 520,140" fill="none" stroke="#ef4444" stroke-width="4" stroke-linecap="round" opacity="0.4" stroke-dasharray="4,2" />

  <!-- Cross-Over Logic Feedback Control Loops (Bistable Switching Traces) -->
  <path d="M 280,270 L 370,270 Q 400,270 400,350" fill="none" stroke="#38bdf8" stroke-width="2.5" opacity="0.7" />
  <path d="M 520,270 L 430,270 Q 400,270 400,350" fill="none" stroke="#ef4444" stroke-width="2.5" opacity="0.4" stroke-dasharray="3,3" />

  <!-- Parabolic Doppler Acoustic Waveguide Threat Collectors (Left & Right) -->
  <!-- Left Doppler Collector Horn -->
  <path d="M 110,180 C 110,180 130,210 170,210 L 170,230 C 130,230 110,260 110,260 Z" fill="#1e293b" stroke="#38bdf8" stroke-width="2" />
  <path d="M 170,220 L 250,220 Q 280,220 280,260" fill="none" stroke="#38bdf8" stroke-width="2" stroke-linecap="round" />
  <!-- Right Doppler Collector Horn -->
  <path d="M 690,180 C 690,180 670,210 630,210 L 630,230 C 670,230 690,260 690,260 Z" fill="#1e293b" stroke="#38bdf8" stroke-width="2" />
  <path d="M 630,220 L 550,220 Q 520,220 520,260" fill="none" stroke="#38bdf8" stroke-width="2" stroke-linecap="round" />

  <!-- Ground Altimetry Pitot Interface Connector Ports (4.5mm Bores) -->
  <circle cx="250" cy="520" r="9" fill="#020617" stroke="#60a5fa" stroke-width="2.5" />
  <path d="M 250,511 L 250,400 Q 250,300 280,280" fill="none" stroke="#60a5fa" stroke-width="2" stroke-dasharray="4,4" opacity="0.6" />
  <circle cx="550" cy="520" r="9" fill="#020617" stroke="#60a5fa" stroke-width="2.5" />
  <path d="M 550,511 L 550,400 Q 550,300 520,280" fill="none" stroke="#60a5fa" stroke-width="2" stroke-dasharray="4,4" opacity="0.6" />

  <!-- Kinesthetic Feedback Cuff Bladder Output Ports (2.0mm) -->
  <circle cx="200" cy="140" r="6" fill="#020617" stroke="#fb7185" stroke-width="2" />
  <line x1="280" y1="140" x2="206" y2="140" stroke="#fb7185" stroke-width="2" marker-end="url(#arrow-pink)" />
  
  <circle cx="600" cy="140" r="6" fill="#020617" stroke="#fb7185" stroke-width="2" />
  <line x1="520" y1="140" x2="594" y2="140" stroke="#fb7185" stroke-width="2" marker-end="url(#arrow-pink)" />

  <!-- Failsafe Backup Canopy Pneumatic Output Port Trigger (3.0mm) -->
  <circle cx="400" cy="110" r="8" fill="#020617" stroke="#00f2ff" stroke-width="2.5" />
  <path d="M 520,170 Q 400,170 400,119" fill="none" stroke="#00f2ff" stroke-width="2.5" marker-end="url(#arrow-cyan)" opacity="0.4" stroke-dasharray="4,4" />

  <!-- Incident Sonic Vector Wavefronts (Doppler Radar Threat Accumulators) -->
  <g fill="none" stroke="#38bdf8" opacity="0.6" stroke-width="1.5">
    <path d="M 60,190 A 40,40 0 0,1 60,250" />
    <path d="M 40,180 A 60,60 0 0,1 40,260" stroke-width="2" />
    <path d="M 20,170 A 80,80 0 0,1 20,270" />
  </g>

  <!-- Technical Callouts & Micro-Fluidic Logic Text Overlays -->
  <line x1="150" y1="90" x2="60" y2="50" stroke="#4b5563" stroke-width="1" />
  <text x="50" y="45" fill="#1e3a8a" font-family="monospace" font-size="12" text-anchor="end" font-weight="bold">MONOLITHIC SLA SUBSTRATE CORE</text>

  <line x1="400" y1="480" x2="310" y2="480" stroke="#4b5563" stroke-width="1" />
  <text x="300" y="484" fill="#38bdf8" font-family="monospace" font-size="12" text-anchor="end" font-weight="bold">CORE RAM-AIR DISTRIBUTION INTENSE PLENUM</text>

  <line x1="400" y1="380" x2="290" y2="350" stroke="#4b5563" stroke-width="1" />
  <text x="280" y="345" fill="#34d399" font-family="monospace" font-size="12" text-anchor="end" font-weight="bold">BISTABLE COANDA ADHESION NOZZLE (1.5mm)</text>

  <line x1="140" y1="220" x2="60" y2="140" stroke="#4b5563" stroke-width="1" />
  <text x="50" y="135" fill="#38bdf8" font-family="monospace" font-size="12" text-anchor="end" font-weight="bold">DOPPLER RESONANT HORN (Ø 32.0mm)</text>

  <line x1="250" y1="520" x2="160" y2="550" stroke="#4b5563" stroke-width="1" />
  <text x="150" y="555" fill="#60a5fa" font-family="monospace" font-size="12" text-anchor="end" font-weight="bold">GROUND PITOT CONDUIT LINE (Ø 4.5mm)</text>

  <line x1="200" y1="140" x2="200" y2="40" stroke="#4b5563" stroke-width="1" />
  <text x="200" y="32" fill="#fb7185" font-family="monospace" font-size="12" text-anchor="middle" font-weight="bold">CUFF BLADDER FEEDBACK PORT (Ø 2.0mm)</text>

  <line x1="400" y1="110" x2="520" y2="60" stroke="#4b5563" stroke-width="1" />
  <text x="530" y="56" fill="#00f2ff" font-family="monospace" font-size="12" font-weight="bold">FAILSAFE CANOPY VECTOR EXIT PORT</text>

  <text x="660" y="450" fill="#34d399" font-family="monospace" font-size="12" font-weight="bold">FLUID SWITCHING STABILITY</text>
  <text x="660" y="468" fill="#34d399" font-family="monospace" font-size="12" font-weight="bold">COANDA LAYER FACTOR: 0.96</text>
  <text x="660" y="486" fill="#ef4444" font-family="monospace" font-size="12" font-weight="bold">STALL THRESHOLD: 1200 Pa</text>
  <text x="660" y="504" fill="#fb7185" font-family="monospace" font-size="12" font-weight="bold">ACTUATION LAG: &lt; 15.0ms</text>

  <text x="400" y="585" fill="#475569" font-family="monospace" font-size="14" text-anchor="middle" font-weight="bold">PROJECT ARMW-88 // MODULE SUIT-SENSORS SOLID-STATE COMPUTING BLUEPRINT v1.0.0</text>

  <!-- Defs Definition Marker Configuration Layout Sheets Profiles -->
  <defs>
    <marker id="arrow-pink" viewBox="0 0 10 10" refX="5" refY="5" markerWidth="6" markerHeight="6" orient="auto-start-reverse">
      <path d="M 0 0 L 10 5 L 0 10 z" fill="#fb7185" />
    </marker>
    <marker id="arrow-cyan" viewBox="0 0 10 10" refX="5" refY="5" markerWidth="6" markerHeight="6" orient="auto-start-reverse">
      <path d="M 0 0 L 10 5 L 0 10 z" fill="#00f2ff" />
    </marker>
  </defs>
</svg>
    
