<svg xmlns="http://w3.org" viewBox="0 0 800 600" width="100%" height="100%">
  <!-- Cleanroom Dark Bench Master Specifications Grid Base -->
  <rect width="800" height="600" fill="#010204" />
  <g stroke="#050a15" stroke-width="1" opacity="0.65">
    <path d="M 0,50 L 800,50 M 0,100 L 800,100 M 0,150 L 800,150 M 0,200 L 800,200 M 0,250 L 800,250 M 0,300 L 800,300 M 0,350 L 800,350 M 0,400 L 800,400 M 0,450 L 800,450 M 0,500 L 800,500 M 0,550 L 800,550" />
    <path d="M 50,0 L 50,600 M 100,0 L 100,600 M 150,0 L 150,600 M 200,0 L 200,600 M 250,0 L 250,600 M 300,0 L 300,600 M 350,0 L 350,600 M 400,0 L 400,600 M 450,0 L 450,600 M 500,0 L 500,600 M 550,0 L 550,600 M 600,0 L 600,600 M 650,0 L 650,600 M 700,0 L 700,600 M 750,0 L 750,600" />
  </g>

  <!-- MULTI-SCALE 75MM HEXAGONAL SOLAR ARMOR BLOCK PROFILE -->
  <polygon points="400,150 486,200 486,300 400,350 314,300 314,200" fill="#0f172a" stroke="#475569" stroke-width="3" />
  <text x="400" y="245" fill="#e2e8f0" font-family="monospace" font-size="11" font-weight="bold" text-anchor="middle">75mm REGULAR SCALE</text>
  <text x="400" y="260" fill="#fbbf24" font-family="monospace" font-size="8" text-anchor="middle">AUXETIC POLYURETHANE LIP: 1.2mm</text>

  <!-- MOTH-EYE NANOCONES & BUTTERFLY RIBLET OPTICAL SHROUD -->
  <g stroke="#38bdf8" stroke-width="1.5" opacity="0.6" fill="none">
    <path d="M 330,220 Q 360,200 400,220 Q 440,200 470,220" />
    <path d="M 330,280 Q 360,260 400,280 Q 440,260 470,280" />
  </g>
  <text x="400" y="195" fill="#38bdf8" font-family="monospace" font-size="8" font-weight="bold" text-anchor="middle">MOTH-EYE ANTI-REFLECTIVE NET: 200nm</text>

  <!-- DICOTYLEDON LEAF-VEIN FRACTAL CONDUCTIVE GRID TRACES -->
  <g stroke="#a855f7" stroke-width="1" fill="none" opacity="0.75">
    <line x1="400" y1="150" x2="400" y2="350" stroke-width="2" />
    <line x1="400" y1="210" x2="450" y2="180" />
    <line x1="400" y1="210" x2="350" y2="180" />
    <line x1="400" y1="290" x2="460" y2="320" />
    <line x1="400" y1="290" x2="340" y2="320" />
  </g>
  <text x="400" y="325" fill="#a855f7" font-family="monospace" font-size="8" font-weight="bold" text-anchor="middle">LEAF-VEIN ELECTRICAL APERTURE: 99.8%</text>

  <!-- THORNY-DEVIL VASCULAR COOLING & DEEP-SPACE RADIATIVE CHANNELS -->
  <line x1="320" y1="250" x2="480" y2="250" stroke="#ec4899" stroke-width="2" stroke-dasharray="4,4" opacity="0.8" />
  <text x="400" y="375" fill="#ec4899" font-family="monospace" font-size="9" font-weight="bold" text-anchor="middle">120μm CAPILLARY INTERNAL LOOPS // THERMOELECTRIC DEEP-SPACE GRADIENT</text>

  <!-- TITLE & TECHNICAL SPEC LABELS OVERLAYS -->
  <text x="400" y="55" fill="#34d399" font-family="monospace" font-size="12" font-weight="bold" text-anchor="middle">PROJECT SOLAR-ARMOR PROTECTION MATRICES SPECIFICATIONS</text>
  <text x="400" y="515" fill="#34d399" font-family="monospace" font-size="9" font-weight="bold" text-anchor="middle">DAYLIGHT OPTICAL INTERCEPT: ≥ 98.2% // NOCTURNAL ANTI-SOLAR YIELD: ≥ 50.0 mW/m2</text>
  <text x="400" y="540" fill="#64748b" font-family="monospace" font-size="9" text-anchor="middle">Chassis Construction Process: SLA Multi-Material Polymer Prints // Impact Protection Envelope: 150.0 Joules</text>
  <text x="400" y="575" fill="#475569" font-family="monospace" font-size="14" text-anchor="middle" font-weight="bold">PROJECT SOLAR-ARMOR // 24-HOUR ENERGY HARVEST REFERENCE BLUEPRINT v1.0.0</text>
</svg>
