<svg xmlns="http://w3.org" viewBox="0 0 800 600" width="100%" height="100%">
  <!-- Cleanroom Dark Bench Mission Phase Grid Base -->
  <rect width="800" height="600" fill="#010306" />
  <g stroke="#070d18" stroke-width="1" opacity="0.65">
    <path d="M 0,50 L 800,50 M 0,100 L 800,100 M 0,150 L 800,150 M 0,200 L 800,200 M 0,250 L 800,250 M 0,300 L 800,300 M 0,350 L 800,350 M 0,400 L 800,400 M 0,450 L 800,450 M 0,500 L 800,500 M 0,550 L 800,550" />
    <path d="M 50,0 L 50,600 M 100,0 L 100,600 M 150,0 L 150,600 M 200,0 L 200,600 M 250,0 L 250,600 M 300,0 L 300,600 M 350,0 L 350,600 M 400,0 L 400,600 M 450,0 L 450,600 M 500,0 L 500,600 M 550,0 L 550,600 M 600,0 L 600,600 M 650,0 L 650,600 M 700,0 L 700,600 M 750,0 L 750,600" />
  </g>

  <!-- MULTI-STAGE MISSION FLIGHT TRANSITION SEQUENCE MAP -->

  <!-- PHASE 1: LAUNCH & PASSIVE THICK COMPRESSION THRUST -->
  <!-- Staging Cliff Vector Elevation -->
  <path d="M 0,150 L 100,150 L 180,240 L 220,240" fill="none" stroke="#475569" stroke-width="3" />
  <!-- Gravitational Decline Drop Path ( -35.0 Degrees ) -->
  <path d="M 100,150 Q 140,150 180,220" fill="none" stroke="#ef4444" stroke-width="3" stroke-dasharray="4,2" />
  <circle cx="100" cy="150" r="5" fill="#ef4444" /> <!-- Drop Release Point -->
  <!-- Coanda Mass Induction Multiplier ( 10:1 Entrainment Vector ) -->
  <path d="M 180,220 Q 230,250 320,250" fill="none" stroke="#38bdf8" stroke-width="4" marker-end="url(#arrow-cyan)" />
  <path d="M 195,200 Q 220,230 250,240" fill="none" stroke="#eab308" stroke-width="1.5" opacity="0.6" />
  <path d="M 195,270 Q 220,240 250,245" fill="none" stroke="#eab308" stroke-width="1.5" opacity="0.6" />

  <!-- PHASE 2: CRUISE SOARING & TACTICAL EVASIONS -->
  <!-- Level Soaring Glide Track Envelope ( 27.4:1 L/D Profile ) -->
  <path d="M 320,250 L 580,250" fill="none" stroke="#34d399" stroke-width="3" />
  <!-- Boundary-Layer Suction Rib Flow Indication ( Cl Max 1.12 ) -->
  <path d="M 400,250 C 420,230 450,230 470,250" fill="none" stroke="#34d399" stroke-width="1.5" opacity="0.75" />
  <!-- Kinesthetic Pulse Bladder Switching Input -->
  <path d="M 520,250 Q 550,200 580,250" fill="none" stroke="#fb7185" stroke-width="2" stroke-dasharray="3,3" marker-end="url(#arrow-pink)" opacity="0.8" />
  <circle cx="550" cy="216" r="4" fill="#fb7185" /> <!-- Evasive Target Pull Node -->

  <!-- PHASE 3: TORE SHOCK SUPERHERO TOUCHDOWN IMPACT -->
  <!-- Flare Transition Curve ( High-Drag Wing Sweep Manipulation ) -->
  <path d="M 580,250 Q 640,250 670,350 T 700,520" fill="none" stroke="#818cf8" stroke-width="3" />
  <!-- Pulsed Kinetic Cushion Field Discharge Slits ( 2400 Hz Pulse Shield Burst ) -->
  <g stroke="#00f2ff" stroke-width="2" opacity="0.8" fill="none">
    <path d="M 680,480 A 25,25 0 0,1 720,520" />
    <path d="M 665,470 A 40,40 0 0,1 725,520" stroke-width="1.5" stroke-dasharray="3,1" />
  </g>
  <!-- Three-Point Touchdown Impact Coordinate Anchor -->
  <circle cx="700" cy="520" r="8" fill="#e11d48" stroke="#be123c" stroke-width="2" />
  <!-- Force Redirection Vector Loops ( Skeletal Spinal Bypasses ) -->
  <path d="M 700,520 Q 750,470 700,420" fill="none" stroke="#e11d48" stroke-width="2.5" stroke-dasharray="4,2" marker-end="url(#arrow-red)" />

  <!-- Ground Grid Level Foundation Line Anchor -->
  <line x1="600" y1="520" x2="780" y2="520" stroke="#475569" stroke-width="2" />

  <!-- TECHNICAL TEXT CALLOUTS & CRITICAL PHASE LABELS -->
  <text x="100" y="130" fill="#ef4444" font-family="monospace" font-size="11" font-weight="bold">STAGING DROP CAP (θ = -35°)</text>
  <text x="250" y="290" fill="#38bdf8" font-family="monospace" font-size="11" font-weight="bold" text-anchor="middle">COANDA AIR THRUST (10:1 ENTRAINMENT)</text>

  <text x="450" y="280" fill="#34d399" font-family="monospace" font-size="11" font-weight="bold" text-anchor="middle">SUCTION REWEDGE GLIDE (Cl: 1.12)</text>
  <text x="580" y="195" fill="#fb7185" font-family="monospace" font-size="11" font-weight="bold">KINESTHETIC CUFF ALERT (&lt; 15ms)</text>

  <text x="735" y="460" fill="#00f2ff" font-family="monospace" font-size="11" font-weight="bold" text-anchor="end">PULSED SHIELD (2400 Hz)</text>
  <text x="730" y="555" fill="#e11d48" font-family="monospace" font-size="11" font-weight="bold" text-anchor="middle">CORE STOMP ABSORB (860J)</text>

  <!-- Title Ledger Stamp Frame -->
  <text x="400" y="585" fill="#475569" font-family="monospace" font-size="14" text-anchor="middle" font-weight="bold">PROJECT ARMW-88 // MODULE SUIT-PROCEDURES MISSION TRANSITION BLUEPRINT v1.0.0</text>

  <defs>
    <marker id="arrow-cyan" viewBox="0 0 10 10" refX="5" refY="5" markerWidth="6" markerHeight="6" orient="auto-start-reverse">
      <path d="M 0 0 L 10 5 L 0 10 z" fill="#38bdf8" />
    </marker>
    <marker id="arrow-pink" viewBox="0 0 10 10" refX="5" refY="5" markerWidth="6" markerHeight="6" orient="auto-start-reverse">
      <path d="M 0 0 L 10 5 L 0 10 z" fill="#fb7185" />
    </marker>
    <marker id="arrow-red" viewBox="0 0 10 10" refX="5" refY="5" markerWidth="6" markerHeight="6" orient="auto-start-reverse">
      <path d="M 0 0 L 10 5 L 0 10 z" fill="#e11d48" />
    </marker>
  </defs>
</svg>
    
