<svg xmlns="http://w3.org" viewBox="0 0 800 600" width="100%" height="100%">
  <!-- Cleanroom Dark Bench Protection Shielding Grid Base -->
  <rect width="800" height="600" fill="#010204" />
  <g stroke="#050b18" stroke-width="1" opacity="0.65">
    <path d="M 0,50 L 800,50 M 0,100 L 800,100 M 0,150 L 800,150 M 0,200 L 800,200 M 0,250 L 800,250 M 0,300 L 800,300 M 0,350 L 800,350 M 0,400 L 800,400 M 0,450 L 800,450 M 0,500 L 800,500 M 0,550 L 800,550" />
    <path d="M 50,0 L 50,600 M 100,0 L 100,600 M 150,0 L 150,600 M 200,0 L 200,600 M 250,0 L 250,600 M 300,0 L 300,600 M 350,0 L 350,600 M 400,0 L 400,600 M 450,0 L 450,600 M 500,0 L 500,600 M 550,0 L 550,600 M 600,0 L 600,600 M 650,0 L 650,600 M 700,0 L 700,600 M 750,0 L 750,600" />
  </g>

  <!-- MULTI-LAYER NON-METALLIC TOUGH PHOTOPOLYMER SHIELDING (140 dB EMP Attenuation) -->
  <rect x="80" y="80" width="640" height="440" fill="none" stroke="#334155" stroke-width="6" rx="8" />
  <rect x="92" y="92" width="616" height="416" fill="none" stroke="#1e293b" stroke-width="3" rx="6" />

  <!-- INTERNAL REGENERATION RESERVOIR HOUSING CROSS SECTION -->
  <rect x="200" y="220" width="400" height="180" fill="#0f172a" stroke="#475569" stroke-width="2" rx="4" />

  <!-- SACRIFICIAL ZINC ANODE PLATES MATRIX (1.5mm Thickness Profiles) -->
  <!-- Automated electrochemical purification cell zone generating +0.23V bias -->
  <g fill="#334155" stroke="#9ca3af" stroke-width="1.5">
    <rect x="220" y="240" width="20" height="140" rx="1" />
    <rect x="250" y="240" width="20" height="140" rx="1" />
  </g>
  <path d="M 235,220 V 235 M 245,400 V 385" stroke="#34d399" stroke-width="1.5" stroke-dasharray="3,1" />

  <!-- BARIUM TITANATE (BaTiO3) PIEZO-CATALYTIC SCALINGS (15 Micron Thin-Films) -->
  <!-- Continuous continuous acoustic sonolysis driven by native 2400 Hz hum -->
  <path d="M 285,230 H 585 M 285,390 H 585" stroke="#10b981" stroke-width="3" stroke-dasharray="4,2" />

  <!-- RECONSTRUCTED EGAIN LIQUID METAL FLOW PATH -->
  <path d="M 300,310 H 560" fill="none" stroke="#cbd5e1" stroke-width="24" stroke-linecap="round" />
  <path d="M 300,310 H 560" fill="none" stroke="#f8fafc" stroke-width="4" stroke-linecap="round" opacity="0.8" />

  <!-- HIGH-INTENSITY ELECTROMAGNETIC PULSE BLOCKING FIELD BOUNDARIES -->
  <g fill="none" stroke="#ef4444" stroke-width="2" opacity="0.4">
    <path d="M 60,120 Q 40,300 60,480" />
    <path d="M 40,100 Q 20,300 40,500" />
    <path d="M 740,120 Q 760,300 740,480" />
    <path d="M 760,100 Q 780,300 760,500" />
  </g>

  <!-- DIAGRAM DATA COUPLING LABELS TEXT OVERLAYS -->
  <text x="400" y="65" fill="#ef4444" font-family="monospace" font-size="12" font-weight="bold" text-anchor="middle">HIGH-INTENSITY EMP SHIELD BARRIER (140 dB SPECTRUM CEILING)</text>
  <text x="210" y="195" fill="#9ca3af" font-family="monospace" font-size="11" font-weight="bold">ZINC ANODE PLATES</text>
  <text x="590" y="195" fill="#10b981" font-family="monospace" font-size="11" font-weight="bold" text-anchor="end">BaTiO₃ PIEZO-CATALYTIC SCALINGS</text>
  
  <text x="430" y="295" fill="#ffffff" font-family="monospace" font-size="11" font-weight="bold" text-anchor="middle">PURIFIED LIQUID WIRE</text>
  <text x="430" y="340" fill="#34d399" font-family="monospace" font-size="12" font-weight="bold" text-anchor="middle">GALVANIC BIAS POTENTIAL: +0.23 V</text>
  <text x="430" y="358" fill="#34d399" font-family="monospace" font-size="10" font-weight="bold" text-anchor="middle">OXIDE RECONVERSION LATENCY: ≤ 0.12 ms</text>

  <text x="400" y="450" fill="#00f2ff" font-family="monospace" font-size="11" font-weight="bold" text-anchor="middle">LIGHTNING Strike CASCADE IMMUNITY: NON-METALLIC ISOLATION OPEN</text>
  
  <text x="400" y="545" fill="#64748b" font-family="monospace" font-size="10" text-anchor="middle">Acoustic Sonolysis Frequency Drive: 2400 Hz // Sacrificial Anode Target Lifespan: 500 Years</text>
  <text x="400" y="560" fill="#64748b" font-family="monospace" font-size="9" text-anchor="middle">Photopolymer Frame Shield Resolutions: 25 Microns Z-Axis // Capillary Wick Separation: 0.05mm Porous</text>

  <!-- Title & Foot Stamp Frame Matrix -->
  <text x="400" y="585" fill="#475569" font-family="monospace" font-size="14" text-anchor="middle" font-weight="bold">PROJECT RESONANT INFRASTRUCTURE // MODULE GRID-PROTECTION CORES SHIELD v1.0.0</text>
</svg>
