<svg xmlns="http://w3.org" viewBox="0 0 800 600" width="100%" height="100%">
  <!-- Cleanroom Dark Bench Acoustics Grid Base -->
  <rect width="800" height="600" fill="#010204" />
  <g stroke="#040916" stroke-width="1" opacity="0.65">
    <path d="M 0,50 L 800,50 M 0,100 L 800,100 M 0,150 L 800,150 M 0,200 L 800,200 M 0,250 L 800,250 M 0,300 L 800,300 M 0,350 L 800,350 M 0,400 L 800,400 M 0,450 L 800,450 M 0,500 L 800,500 M 0,550 L 800,550" />
    <path d="M 50,0 L 50,600 M 100,0 L 100,600 M 150,0 L 150,600 M 200,0 L 200,600 M 250,0 L 250,600 M 300,0 L 300,600 M 350,0 L 350,600 M 400,0 L 400,600 M 450,0 L 450,600 M 500,0 L 500,600 M 550,0 L 550,600 M 600,0 L 600,600 M 650,0 L 650,600 M 700,0 L 700,600 M 750,0 L 750,600" />
  </g>

  <!-- TRANSVERSE SECTION OF DEPLOYED MICRO-FLUIDIC LOGIC TRACK -->
  <!-- Left Wall Profile -->
  <path d="M 150,100 L 150,450 L 400,480" fill="none" stroke="#475569" stroke-width="4" stroke-linecap="round" />
  <!-- Right Wall Profile -->
  <path d="M 650,100 L 650,450 L 400,480" fill="none" stroke="#475569" stroke-width="4" stroke-linecap="round" />

  <!-- PZT-5H SUB-MINIATURE PIEZOELECTRIC TRANSDUCER ARRAYS -->
  <g fill="#1e293b" stroke="#64748b" stroke-width="1.5">
    <!-- Left Transducer Array Block -->
    <rect x="90" y="200" width="55" height="150" rx="2" />
    <path d="M 105,200 V 350 M 120,200 V 350" stroke="#00f2ff" stroke-width="1.5" stroke-dasharray="4,2" />
    <!-- Right Transducer Array Block -->
    <rect x="655" y="200" width="55" height="150" rx="2" />
    <path d="M 670,200 V 350 M 685,200 V 350" stroke="#00f2ff" stroke-width="1.5" stroke-dasharray="4,2" />
  </g>

  <!-- 2400 Hz ACOUSTIC PRESSURE WAVE SIMULATION LINES -->
  <!-- Standing wave nodes generating 95% viscosity drop -->
  <g fill="none" stroke="#38bdf8" opacity="0.6" stroke-width="1.5">
    <!-- Left Wave Pulses -->
    <path d="M 150,220 C 200,240 250,200 300,220" />
    <path d="M 150,270 C 200,290 250,250 300,270" />
    <path d="M 150,320 C 200,340 250,300 300,320" />
    <!-- Right Wave Pulses -->
    <path d="M 650,220 C 600,240 550,200 500,220" />
    <path d="M 650,270 C 600,290 550,250 500,270" />
    <path d="M 650,320 C 600,340 550,300 500,320" />
  </g>

  <!-- REFLECTIVE SILVER EGAIN LIQUID METAL CONDUCTOR STREAM -->
  <!-- Perfectly hovering in track center channel via acoustic cushion node -->
  <path d="M 320,180 C 350,180 340,380 400,380 C 460,380 450,180 480,180" fill="none" stroke="#cbd5e1" stroke-width="32" stroke-linecap="round" />
  <path d="M 320,180 C 350,180 340,380 400,380 C 460,380 450,180 480,180" fill="none" stroke="#f8fafc" stroke-width="4" stroke-linecap="round" opacity="0.8" />

  <!-- DYNAMIC FORCE LOAD HARMONIC VECTOR ARROWS -->
  <!-- Inward Balanced Acoustic Levitation Pressures -->
  <path d="M 230,270 L 290,270" fill="none" stroke="#00f2ff" stroke-width="2" marker-end="url(#arrow-cyan)" />
  <path d="M 570,270 L 510,270" fill="none" stroke="#00f2ff" stroke-width="2" marker-end="url(#arrow-cyan)" />

  <!-- DIAGRAM DATA COUPLING TEXT OVERLAYS -->
  <text x="120" y="180" fill="#00f2ff" font-family="monospace" font-size="11" font-weight="bold">PZT-5H ARRAY (LEFT)</text>
  <text x="680" y="180" fill="#00f2ff" font-family="monospace" font-size="11" font-weight="bold" text-anchor="end">PZT-5H ARRAY (RIGHT)</text>
  
  <text x="400" y="135" fill="#38bdf8" font-family="monospace" font-size="12" font-weight="bold" text-anchor="middle">ACOUSTIC TARGET LOCK: 2400.0 Hz</text>
  <text x="400" y="275" fill="#ffffff" font-family="monospace" font-size="12" font-weight="bold" text-anchor="middle">HOVERING EGAIN MATRIX</text>
  <text x="400" y="295" fill="#34d399" font-family="monospace" font-size="11" font-weight="bold" text-anchor="middle">VISCOSITY DAMPENING: -95%</text>

  <text x="400" y="430" fill="#34d399" font-family="monospace" font-size="11" font-weight="bold" text-anchor="middle">FRICTIONLESS LEVITATION NODES LOCKED</text>
  
  <text x="400" y="525" fill="#64748b" font-family="monospace" font-size="10" text-anchor="middle">Acoustic Node Tolerance Margin: ±0.1 Hz // Half-Wavelength Scale (λ/2): 12.5mm</text>
  <text x="400" y="540" fill="#64748b" font-family="monospace" font-size="10" text-anchor="middle">Structural Isolation Index: 35.0 dB // Transducer Power Output: 8.5 mW per element</text>

  <!-- Title & Foot Stamp Frame Matrix -->
  <text x="400" y="585" fill="#475569" font-family="monospace" font-size="14" text-anchor="middle" font-weight="bold">PROJECT LIQUID-RESONANCE-v88 // MODULE COMPUTE-ACOUSTIC RESONANCE v1.0.0</text>

  <defs>
    <marker id="arrow-cyan" viewBox="0 0 10 10" refX="5" refY="5" markerWidth="5" markerHeight="5" orient="auto-start-reverse">
      <path d="M 0 0 L 10 5 L 0 10 z" fill="#00f2ff" />
    </marker>
  </defs>
</svg>
