<svg xmlns="http://w3.org" viewBox="0 0 800 600" width="100%" height="100%">
  <!-- Cleanroom Dark Bench Acoustic Grid Base -->
  <rect width="800" height="600" fill="#010305" />
  <g stroke="#080c14" stroke-width="1" opacity="0.6">
    <path d="M 0,50 L 800,50 M 0,100 L 800,100 M 0,150 L 800,150 M 0,200 L 800,200 M 0,250 L 800,250 M 0,300 L 800,300 M 0,350 L 800,350 M 0,400 L 800,400 M 0,450 L 800,450 M 0,500 L 800,500 M 0,550 L 800,550" />
    <path d="M 50,0 L 50,600 M 100,0 L 100,600 M 150,0 L 150,600 M 200,0 L 200,600 M 250,0 L 250,600 M 300,0 L 300,600 M 350,0 L 350,600 M 400,0 L 400,600 M 450,0 L 450,600 M 500,0 L 500,600 M 550,0 L 550,600 M 600,0 L 600,600 M 650,0 L 650,600 M 700,0 L 700,600 M 750,0 L 750,600" />
  </g>

  <!-- SOLID-STATE AI INTERFACE TOPO BLUEPRINT -->

  <!-- Monolithic Housing Outline (SLA Photopolymer Chamber) -->
  <rect x="180" y="80" width="440" height="440" fill="#031525" stroke="#0369a1" stroke-width="4" rx="8" opacity="0.85" />

  <!-- Beryllium Copper C17200 Acoustic Reed Ribbon Arrays (Tuned Lengths Layout) -->
  <g stroke="#f59e0b" stroke-width="6" stroke-linecap="butt">
    <!-- Cruise Baseline Reed (240 Hz - Longest Slat) -->
    <line x1="260" y1="120" x2="260" y2="340" />
    <!-- Terrain Proximity Reed (440 Hz - Intermediate Slat) -->
    <line x1="310" y1="120" x2="310" y2="280" />
    <!-- Threat Warning Low-Band Reed (1200 Hz - Mid Slat) -->
    <line x1="360" y1="120" x2="360" y2="220" />
    <!-- Threat Warning High-Band Reed (1800 Hz - Short Slat) -->
    <line x1="410" y1="120" x2="410" y2="190" />
    <!-- Critical Stall Warning Staccato Reed (4500 Hz - Shortest Slat) -->
    <line x1="460" y1="120" x2="460" y2="155" />
  </g>

  <!-- Sub-Miniature M1.5 Anchor Clamps & Setscrews (Root Clamping Block) -->
  <rect x="230" y="100" width="260" height="25" fill="#334155" stroke="#64748b" stroke-width="1.5" />
  <g fill="#94a3b8" stroke="#475569" stroke-width="1">
    <circle cx="260" cy="112" r="3" /> <circle cx="310" cy="112" r="3" />
    <circle cx="360" cy="112" r="3" /> <circle cx="410" cy="112" r="3" />
    <circle cx="460" cy="112" r="3" />
  </g>

  <!-- Internal Pneumatic Jet Intakes (Venting Fluidic Compute Signals) -->
  <g fill="none" stroke="#38bdf8" stroke-width="2" stroke-dasharray="3,2" opacity="0.8">
    <path d="M 260,400 L 260,355" marker-end="url(#arrow-cyan)" />
    <path d="M 310,400 L 310,295" marker-end="url(#arrow-cyan)" />
    <path d="M 360,400 L 360,235" marker-end="url(#arrow-cyan)" />
    <path d="M 410,400 L 410,205" marker-end="url(#arrow-cyan)" />
    <path d="M 460,400 L 460,170" marker-end="url(#arrow-cyan)" />
  </g>

  <!-- Acoustic Sine Wave Oscillation Paths (Frequency Harmonic Fields) -->
  <g fill="none" stroke="#f59e0b" stroke-width="1.5" opacity="0.6">
    <!-- 240 Hz Broad Amplitude Field -->
    <path d="M 260,340 C 240,350 240,370 260,380 C 280,390 280,410 260,420" />
    <!-- 4500 Hz Tight Compression Field -->
    <path d="M 460,155 C 455,160 455,165 460,170 C 465,175 465,180 460,185 C 455,190 455,195 460,200 C 465,205 465,210 460,215" />
  </g>

  <!-- MECHANOCHEMICAL ANALOG STATE-MEMORY BLOCK -->
  <rect x="520" y="260" width="80" height="150" fill="none" stroke="#0284c7" stroke-width="3" rx="4" />
  
  <!-- Delrin Slide Pistons (1.8mm Shuttle Valve Pathways) -->
  <!-- Upper Piston (Default Stored State Zone) -->
  <rect x="530" y="280" width="60" height="15" fill="#e2e8f0" stroke="#475569" stroke-width="1" rx="1" />
  <!-- Lower Piston (Actuated Threw State Zone) -->
  <rect x="530" y="360" width="60" height="15" fill="#e2e8f0" stroke="#475569" stroke-width="1" rx="1" />
  
  <!-- Mechanical Shuttle Motion Path Tracking Vectors -->
  <path d="M 560,275 L 560,260" fill="none" stroke="#fb7185" stroke-width="1.5" marker-end="url(#arrow-pink)" opacity="0.7" />
  <path d="M 560,380 L 560,395" fill="none" stroke="#fb7185" stroke-width="1.5" marker-end="url(#arrow-pink)" opacity="0.7" />

  <!-- Technical Interface Callout Labels & Metrics Text -->
  <line x1="230" y1="112" x2="100" y2="112" stroke="#4b5563" stroke-width="1" />
  <text x="90" y="116" fill="#64748b" font-family="monospace" font-size="12" text-anchor="end" font-weight="bold">ROOT M1.5 SETSCREW CLAMP MATRIX</text>

  <line x1="260" y1="260" x2="120" y2="300" stroke="#4b5563" stroke-width="1" />
  <text x="110" y="305" fill="#f59e0b" font-family="monospace" font-size="12" text-anchor="end" font-weight="bold">BERYLLIUM COPPER REED (0.15mm)</text>

  <line x1="360" y1="400" x2="360" y2="470" stroke="#4b5563" stroke-width="1" />
  <text x="360" y="485" fill="#38bdf8" font-family="monospace" font-size="12" text-anchor="middle" font-weight="bold">MICRO-CHANNEL PRESSURE SIGNAL CONDUITS</text>

  <line x1="560" y1="320" x2="670" y2="320" stroke="#4b5563" stroke-width="1" />
  <text x="680" y="324" fill="#0284c7" font-family="monospace" font-size="12" font-weight="bold">DELRIN SHUTTLE VALVE (1.8mm TRAVEL)</text>

  <text x="500" y="150" fill="#f59e0b" font-family="monospace" font-size="12" font-weight="bold">STALL STACCATO: 4500 Hz</text>
  <text x="500" y="185" fill="#ef4444" font-family="monospace" font-size="12" font-weight="bold">THREAT INTERVAL: 1800 Hz</text>
  <text x="195" y="335" fill="#34d399" font-family="monospace" font-size="12" font-weight="bold">CRUISE TONE: 240 Hz</text>

  <text x="630" y="210" fill="#00f2ff" font-family="monospace" font-size="12" font-weight="bold" text-anchor="end">ANALOG STATE-MEMORY</text>
  <text x="630" y="228" fill="#00f2ff" font-family="monospace" font-size="12" font-weight="bold" text-anchor="end">SWITCHING: 450 Pa</text>
  <text x="630" y="246" fill="#fb7185" font-family="monospace" font-size="12" font-weight="bold" text-anchor="end">LATENCY: &lt; 15.0ms</text>

  <text x="400" y="585" fill="#475569" font-family="monospace" font-size="14" text-anchor="middle" font-weight="bold">PROJECT ARMW-88 // MODULE SUIT-AI COGNITIVE INTERFACE HARMONICS v1.0.0</text>

  <!-- Defs Arrow Definition Layout Profiles -->
  <defs>
    <marker id="arrow-cyan" viewBox="0 0 10 10" refX="5" refY="5" markerWidth="6" markerHeight="6" orient="auto-start-reverse">
      <path d="M 0 0 L 10 5 L 0 10 z" fill="#38bdf8" />
    </marker>
    <marker id="arrow-pink" viewBox="0 0 10 10" refX="5" refY="5" markerWidth="6" markerHeight="6" orient="auto-start-reverse">
      <path d="M 0 0 L 10 5 L 0 10 z" fill="#fb7185" />
    </marker>
  </defs>
</svg>
    
