<svg xmlns="http://w3.org" viewBox="0 0 800 600" width="100%" height="100%">
  <!-- Cleanroom Dark Bench Procedures Sequencing Grid Base -->
  <rect width="800" height="600" fill="#010204" />
  <g stroke="#050b18" stroke-width="1" opacity="0.65">
    <path d="M 0,50 L 800,50 M 0,100 L 800,100 M 0,150 L 800,150 M 0,200 L 800,200 M 0,250 L 800,250 M 0,300 L 800,300 M 0,350 L 800,350 M 0,400 L 800,400 M 0,450 L 800,450 M 0,500 L 800,500 M 0,550 L 800,550" />
    <path d="M 50,0 L 50,600 M 100,0 L 100,600 M 150,0 L 150,600 M 200,0 L 200,600 M 250,0 L 250,600 M 300,0 L 300,600 M 350,0 L 350,600 M 400,0 L 400,600 M 450,0 L 450,600 M 500,0 L 500,600 M 550,0 L 550,600 M 600,0 L 600,600 M 650,0 L 650,600 M 700,0 L 700,600 M 750,0 L 750,600" />
  </g>

  <!-- CHRONOLOGICAL THREE-STAGE COLD BOOT SEQUENCE TIMELINE -->

  <!-- STAGE 1: COLD FLUIDIC WETTING PRE-CHECK (Phase 1) -->
  <g transform="translate(40, 180)" opacity="0.85">
    <rect width="140" height="110" fill="#1e293b" stroke="#64748b" stroke-width="2.5" rx="4" />
    <!-- 1.5V Isolation Test Bias Trace -->
    <path d="M 10,25 H 130 M 10,55 H 130 M 10,85 H 130" stroke="#ef4444" stroke-width="1.5" stroke-dasharray="2,2" />
    <circle cx="70" cy="55" r="16" fill="#475569" stroke="#9ca3af" stroke-width="2" />
    <text x="70" y="60" fill="#f3f4f6" font-family="monospace" font-size="10" font-weight="bold" text-anchor="middle">1.5V TEST BIAS</text>
    <text x="70" y="-12" fill="#9ca3af" font-family="monospace" font-size="11" font-weight="bold" text-anchor="middle">PHASE 1: FLUID WET</text>
  </g>

  <!-- TRANSITION STEP VECTOR 1 (Acoustic Levitation Ignition) -->
  <path d="M 200,235 L 290,235" fill="none" stroke="#38bdf8" stroke-width="3" marker-end="url(#arrow-cyan)" />
  <text x="245" y="215" fill="#38bdf8" font-family="monospace" font-size="10" font-weight="bold" text-anchor="middle">IGNITION</text>
  <text x="245" y="255" fill="#38bdf8" font-family="monospace" font-size="10" font-weight="bold" text-anchor="middle">2400.0 Hz</text>

  <!-- STAGE 2: PHASE-LOCKED CLOCK SYNCHRONIZATION (Phase 2) -->
  <g transform="translate(320, 180)" opacity="0.95">
    <rect width="140" height="110" fill="#0f172a" stroke="#38bdf8" stroke-width="2.5" rx="4" />
    <!-- Symmetrical Standing Wave Node Animation Lines -->
    <path d="M 10,55 C 30,25 50,85 70,55 C 90,25 110,85 130,55" fill="none" stroke="#00f2ff" stroke-width="2" />
    <text x="70" y="100" fill="#38bdf8" font-family="monospace" font-size="9" font-weight="bold" text-anchor="middle">STAND WAVE ACTIVE</text>
    <text x="70" y="-12" fill="#38bdf8" font-family="monospace" font-size="11" font-weight="bold" text-anchor="middle">PHASE 2: CLOCK SYNC</text>
  </g>

  <!-- TRANSITION STEP VECTOR 2 (High-Torque Overclock Ramp) -->
  <path d="M 480,235 L 570,235" fill="none" stroke="#10b981" stroke-width="3" marker-end="url(#arrow-green)" />
  <text x="525" y="215" fill="#10b981" font-family="monospace" font-size="10" font-weight="bold" text-anchor="middle">RAMP LIMIT</text>
  <text x="525" y="255" fill="#10b981" font-family="monospace" font-size="10" font-weight="bold" text-anchor="middle">12.0V TRIGGER</text>

  <!-- STAGE 3: GOD-TIER FRICTIONLESS RESONANT OVERCLOCK ENGINE (Phase 3) -->
  <g transform="translate(600, 180)" opacity="1">
    <rect width="150" height="110" fill="#1e1b4b" stroke="#818cf8" stroke-width="3" rx="4" />
    <!-- Closed-Loop Energy Recycling Symbols -->
    <circle cx="75" cy="55" r="28" fill="none" stroke="#34d399" stroke-width="2" stroke-dasharray="6,3" />
    <path d="M 65,45 L 85,55 L 65,65 Z" fill="#34d399" />
    <text x="75" y="100" fill="#34d399" font-family="monospace" font-size="9" font-weight="bold" text-anchor="middle">ENERGY RECOVER: 18.5%</text>
    <text x="75" y="-12" fill="#818cf8" font-family="monospace" font-size="11" font-weight="bold" text-anchor="middle">PHASE 3: OVERCLOCK</text>
  </g>

  <!-- CLOSED-LOOP PROTECTION RUNWAY GRIDS -->
  <path d="M 675,305 Q 410,410 110,305" fill="none" stroke="#ef4444" stroke-width="2" stroke-dasharray="5,3" marker-end="url(#arrow-red)" />
  <text x="400" y="390" fill="#ef4444" font-family="monospace" font-size="11" font-weight="bold" text-anchor="middle">THERMAL RUNAWAY RESET LINE (TRIGGER OVER 65.0°C -> VOLTAGE RESET TO 0V)</text>

  <!-- PROTOTYPE STEPPING DATA DATA SHEET CALLOUTS -->
  <text x="110" y="315" fill="#64748b" font-family="monospace" font-size="10" text-anchor="middle">Wetting Angle: 140°</text>
  <text x="390" y="315" fill="#64748b" font-family="monospace" font-size="10" text-anchor="middle">Friction Mitigation: -95%</text>
  <text x="675" y="315" fill="#64748b" font-family="monospace" font-size="10" text-anchor="middle">Gate Latency: 3.48ms</text>

  <text x="400" y="470" fill="#00f2ff" font-family="monospace" font-size="12" font-weight="bold" text-anchor="middle">CORE TIMING DELAY CONSTANT: 250.0 ms ACU STABILIZATION WINDOW</text>
  <text x="400" y="515" fill="#64748b" font-family="monospace" font-size="10" text-anchor="middle">Dielectric Barrier Threshold: ≥100 MΩ at 1.5V Bias // Pulse Width Sync Window: 1.5ms</text>
  <text x="400" y="530" fill="#64748b" font-family="monospace" font-size="10" text-anchor="middle">Seebeck Feedback: +344.0 mV // Piezoelectric Fluidic Venturi Siphon Capture: +282.0 mV</text>

  <!-- Title & Foot Stamp Frame Matrix -->
  <text x="400" y="585" fill="#475569" font-family="monospace" font-size="14" text-anchor="middle" font-weight="bold">PROJECT LIQUID-RESONANCE-v88 // CORE SYSTEM PROCEDURES TIMING MAP v1.0.0</text>

  <defs>
    <marker id="arrow-cyan" viewBox="0 0 10 10" refX="5" refY="5" markerWidth="5" markerHeight="5" orient="auto-start-reverse">
      <path d="M 0 0 L 10 5 L 0 10 z" fill="#38bdf8" />
    </marker>
    <marker id="arrow-green" viewBox="0 0 10 10" refX="5" refY="5" markerWidth="5" markerHeight="5" orient="auto-start-reverse">
      <path d="M 0 0 L 10 5 L 0 10 z" fill="#10b981" />
    </marker>
    <marker id="arrow-red" viewBox="0 0 10 10" refX="5" refY="5" markerWidth="5" markerHeight="5" orient="auto-start-reverse">
      <path d="M 0 10 L 10 5 L 0 0 z" fill="#ef4444" />
    </marker>
  </defs>
</svg>
    
