<svg xmlns="http://w3.org" viewBox="0 0 800 600" width="100%" height="100%">
  <!-- Cleanroom Dark Bench Regeneration Loops Grid Base -->
  <rect width="800" height="600" fill="#010204" />
  <g stroke="#040a14" stroke-width="1" opacity="0.65">
    <path d="M 0,50 L 800,50 M 0,100 L 800,100 M 0,150 L 800,150 M 0,200 L 800,200 M 0,250 L 800,250 M 0,300 L 800,300 M 0,350 L 800,350 M 0,400 L 800,400 M 0,450 L 800,450 M 0,500 L 800,500 M 0,550 L 800,550" />
    <path d="M 50,0 L 50,600 M 100,0 L 100,600 M 150,0 L 150,600 M 200,0 L 200,600 M 250,0 L 250,600 M 300,0 L 300,600 M 350,0 L 350,600 M 400,0 L 400,600 M 450,0 L 450,600 M 500,0 L 500,600 M 550,0 L 550,600 M 600,0 L 600,600 M 650,0 L 650,600 M 700,0 L 700,600 M 750,0 L 750,600" />
  </g>

  <!-- MICRO-FLUIDIC REGENERATION FLUID CIRCUITS -->
  <!-- Left Box Area: Sacrificial Zinc Galvanic Reservoir -->
  <rect x="60" y="200" width="200" height="200" fill="#0f172a" stroke="#475569" stroke-width="2.5" rx="4" />
  <!-- Sacrificial Zinc Anode Plate (1.5mm Thickness) -->
  <rect x="80" y="220" width="20" height="160" fill="#334155" stroke="#9ca3af" stroke-width="2" />
  <text x="90" y="305" fill="#9ca3af" font-family="monospace" font-size="11" font-weight="bold" text-anchor="middle" transform="rotate(-90 90 305)">ZINC ANODE STRIP</text>

  <!-- Central Processing Channel Loop (With BaTiO3 Nano-Film Coating) -->
  <path d="M 260,260 L 540,260 L 540,340 L 260,340" fill="none" stroke="#1e1b4b" stroke-width="28" stroke-linejoin="round" />
  <!-- 15 Micron Barium Titanate Piezo-Catalytic Wall Coatings -->
  <path d="M 260,244 L 556,244 L 556,356 L 260,356" fill="none" stroke="#10b981" stroke-width="2.5" stroke-linejoin="round" />

  <!-- Split Capillary Nozzle Phase Separator (Right Box Entrance) -->
  <path d="M 540,260 Q 610,260 640,230" fill="none" stroke="#cbd5e1" stroke-width="12" /> <!-- Pure EGaIn Path -->
  <path d="M 540,340 Q 610,340 640,370" fill="none" stroke="#38bdf8" stroke-width="4" stroke-dasharray="3,1" /> <!-- Trace Impurity Wick -->

  <!-- Moving Fluid Circuit Droplets Mapping -->
  <circle cx="320" cy="260" r="7" fill="#cbd5e1" />
  <circle cx="450" cy="260" r="7" fill="#f8fafc" opacity="0.8" />
  <circle cx="450" cy="340" r="7" fill="#ef4444" opacity="0.4" /> <!-- Oxidized Droplet Approaching Reservoir -->

  <!-- REGEN ENERGY & CHEMICAL BALANCE VECTOR ARROWS -->
  <!-- Galvanic Reduction Potential Flow (+0.23V Loop) -->
  <path d="M 170,220 Q 230,150 350,150 Q 470,150 510,225" fill="none" stroke="#34d399" stroke-width="2" marker-end="url(#arrow-green)" />
  <!-- 2400 Hz Acoustic Vibration Compression Vectors -->
  <path d="M 400,215 V 238" fill="none" stroke="#00f2ff" stroke-width="1.5" marker-end="url(#arrow-cyan)" />
  <path d="M 400,385 V 362" fill="none" stroke="#00f2ff" stroke-width="1.5" marker-end="url(#arrow-cyan)" />

  <!-- DIAGRAM RE-ALIGNMENT DETAILS & SPECIFICATION LABELS -->
  <text x="160" y="390" fill="#475569" font-family="monospace" font-size="11" font-weight="bold" text-anchor="middle">GALVANIC PURIFIER TANK</text>
  <text x="400" y="297" fill="#ffffff" font-family="monospace" font-size="11" font-weight="bold" text-anchor="middle">HIGH-SPEED COMPUTE TRACK</text>
  <text x="400" y="315" fill="#10b981" font-family="monospace" font-size="10" font-weight="bold" text-anchor="middle">BaTiO₃ PIEZO-CATALYTIC SCALING (15μm)</text>
  
  <text x="400" y="125" fill="#34d399" font-family="monospace" font-size="12" font-weight="bold" text-anchor="middle">NET NET GALVANIC REDUCTION BIAS: +0.23 V</text>
  <text x="400" y="142" fill="#34d399" font-family="monospace" font-size="10" font-weight="bold" text-anchor="middle">CLOSED-LOOP ATOMIC REJUVENATION E° = +0.23V (100% CONVERSION)</text>
  
  <text x="650" y="215" fill="#cbd5e1" font-family="monospace" font-size="10" font-weight="bold">PURE EGAIN CORE (0.624 N/m)</text>
  <text x="650" y="385" fill="#38bdf8" font-family="monospace" font-size="10" font-weight="bold">IMPURITY WICK GRADIATION</text>

  <text x="400" y="525" fill="#64748b" font-family="monospace" font-size="10" text-anchor="middle">Acoustic Sonolysis Vibration Target: 2400 Hz // Oxide Dissolution Latency: ≤0.12ms</text>
  <text x="400" y="540" fill="#64748b" font-family="monospace" font-size="10" text-anchor="middle">Sacrificial Anode Target Lifespan: 500 Years // Capillary Wick Separation Gap Width: 0.05mm</text>

  <!-- Title & Foot Stamp Frame Matrix -->
  <text x="400" y="585" fill="#475569" font-family="monospace" font-size="14" text-anchor="middle" font-weight="bold">PROJECT LIQUID-RESONANCE-v88 // MODULE COMPUTE-REGENERATION IMMORTAL v1.0.0</text>

  <defs>
    <marker id="arrow-green" viewBox="0 0 10 10" refX="5" refY="5" markerWidth="6" markerHeight="6" orient="auto-start-reverse">
      <path d="M 0 0 L 10 5 L 0 10 z" fill="#34d399" />
    </marker>
    <marker id="arrow-cyan" viewBox="0 0 10 10" refX="5" refY="5" markerWidth="5" markerHeight="5" orient="auto-start-reverse">
      <path d="M 0 0 L 10 5 L 0 10 z" fill="#00f2ff" />
    </marker>
  </defs>
</svg>
