<svg xmlns="http://w3.org" viewBox="0 0 800 600" width="100%" height="100%">
  <!-- Cleanroom Dark Bench Reclaim Core Grid Base -->
  <rect width="800" height="600" fill="#010204" />
  <g stroke="#050a15" stroke-width="1" opacity="0.65">
    <path d="M 0,50 L 800,50 M 0,100 L 800,100 M 0,150 L 800,150 M 0,200 L 800,200 M 0,250 L 800,250 M 0,300 L 800,300 M 0,350 L 800,350 M 0,400 L 800,400 M 0,450 L 800,450 M 0,500 L 800,500 M 0,550 L 800,550" />
    <path d="M 50,0 L 50,600 M 100,0 L 100,600 M 150,0 L 150,600 M 200,0 L 200,600 M 250,0 L 250,600 M 300,0 L 300,600 M 350,0 L 350,600 M 400,0 L 400,600 M 450,0 L 450,600 M 500,0 L 500,600 M 550,0 L 550,600 M 600,0 L 600,600 M 650,0 L 650,600 M 700,0 L 700,600 M 750,0 L 750,600" />
  </g>

  <!-- GEOMETRIC FLUIDIC DIVERTER VALVE ASSEMBLY -->
  <g fill="#1e1b4b" stroke="#818cf8" stroke-width="2.5" stroke-linejoin="round">
    <path d="M 120,240 L 240,160 L 240,440 L 120,360 Z" />
    <rect x="70" y="280" width="50" height="40" fill="#312e81" stroke="#818cf8" />
  </g>

  <!-- ISOTHERMAL HYDRO-COUNTER-VORTEX (1.618 Golden Spiral Tuning) -->
  <!-- Fluid compresses inward down the center of the channel away from track walls -->
  <g fill="none" stroke="#be123c" stroke-width="8" opacity="0.85">
    <path d="M 240,240 C 310,210 390,200 460,215 C 500,225 520,250 540,230" marker-end="url(#arrow-red)" />
    <path d="M 240,360 C 310,390 390,400 460,385 C 500,375 520,350 540,370" marker-end="url(#arrow-red)" />
  </g>

  <!-- COMPRESSION CHAMBERS & PRESSURE NODE BOUNDARIES -->
  <g fill="#1e293b" stroke="#475569" stroke-width="3">
    <rect x="540" y="190" width="60" height="90" rx="4" />
    <rect x="540" y="320" width="60" height="90" rx="4" />
  </g>

  <!-- 250-MICRON QUARTZ-CRYSTAL PIEZOELECTRIC RIBBONS -->
  <g fill="#0ea5e9" stroke="#38bdf8" stroke-width="1.5" opacity="0.9">
    <rect x="585" y="200" width="8" height="70" rx="1" />
    <rect x="585" y="330" width="8" height="70" rx="1" />
  </g>

  <!-- SURFACE-DEPOSITED PVD GOLD FEEDBACK TRACES -->
  <g fill="none" stroke="#f59e0b" stroke-width="2" stroke-dasharray="4,2">
    <path d="M 590,235 H 680 V 300 H 740" />
    <path d="M 590,365 H 680 V 300" />
  </g>
  <circle cx="740" cy="300" r="12" fill="#1e293b" stroke="#f59e0b" stroke-width="2" />

  <!-- METROLOGICAL DATA LABELS OVERLAYS -->
  <text x="400" y="75" fill="#34d399" font-family="monospace" font-size="12" font-weight="bold" text-anchor="middle">CLOSED-LOOP HYDRAULIC RECLAIM MATRIX (η_reclaim ≥ 18.5% ATTAINMENT FLOOR)</text>
  <text x="140" y="135" fill="#818cf8" font-family="monospace" font-size="11" font-weight="bold">DIVERTER VALVE</text>
  
  <text x="390" y="175" fill="#f43f5e" font-family="monospace" font-size="11" font-weight="bold" text-anchor="middle">1.618 GOLDEN HORN COUNTER-CURRENT (120 kPa)</text>
  <text x="570" y="165" fill="#38bdf8" font-family="monospace" font-size="11" font-weight="bold" text-anchor="middle">PRESSURE NODES</text>
  <text x="690" y="275" fill="#f59e0b" font-family="monospace" font-size="10" font-weight="bold">PVD GOLD BUS TRACES</text>

  <text x="400" y="505" fill="#00f2ff" font-family="monospace" font-size="11" font-weight="bold" text-anchor="middle">FRICTION-FREE ISOTHERMAL FLUID INVERSION CELL SECURED</text>
  <text x="400" y="545" fill="#64748b" font-family="monospace" font-size="10" text-anchor="middle">Quartz Ribbon Profile: 250μm Film // Crystal Mechanical Response Latency: ≤0.5ms</text>
  <text x="400" y="560" fill="#64748b" font-family="monospace" font-size="9" text-anchor="middle">Zero Cavitation Erosion Regime // Load Matching Bus Trace Impedance: 0.05 Ohms</text>

  <!-- Title Footer Frame Matrix Stamp -->
  <text x="400" y="585" fill="#475569" font-family="monospace" font-size="14" text-anchor="middle" font-weight="bold">PROJECT AETHERIS // MODULE DRIVE-RECLAIM ISOTHERMAL v2.0.0</text>

  <defs>
    <marker id="arrow-red" viewBox="0 0 10 10" refX="5" refY="5" markerWidth="5" markerHeight="5" orient="auto-start-reverse">
      <path d="M 0 0 L 10 5 L 0 10 z" fill="#be123c" />
    </marker>
  </defs>
</svg>
